<?xml version="1.0"?>
<svg width="512" height="512" xmlns="http://www.w3.org/2000/svg" xmlns:svg="http://www.w3.org/2000/svg">

 <g class="layer">
  <title>Layer 1</title>
  <path d="m113.14,463c-1.94,0 -3.88,-0.97 -5.81,-1.93c-2.9,-1.94 -4.85,-6.77 -3.88,-10.63l42.62,-158.49l-127.85,-103.4c-3.87,-1.94 -4.84,-6.77 -3.87,-10.63a9.3,9.3 0 0 1 8.72,-6.77l164.64,-8.7l59.09,-153.65c1.94,-2.9 5.81,-5.8 9.69,-5.8c3.87,0 7.75,2.9 8.71,5.8l59.08,153.65l164.65,8.7a9.3,9.3 0 0 1 8.72,6.77c0.97,3.86 0,7.73 -2.9,10.63l-127.85,103.4l42.61,158.49c0.97,3.86 0,7.73 -3.87,10.63c-2.9,1.93 -7.75,2.9 -10.66,0l-138.5,-88.91l-138.49,88.9c-1.94,1.94 -2.9,1.94 -4.84,1.94l-0.01,0z" fill="#dbd272" id="svg_1"/>
 </g>
</svg>